<?xml version="1.0" encoding="utf-8"?>
<!-- Generator: Adobe Illustrator 26.0.0, SVG Export Plug-In . SVG Version: 6.00 Build 0)  -->
<svg version="1.1" id="graph-div" xmlns="http://www.w3.org/2000/svg" xmlns:xlink="http://www.w3.org/1999/xlink" x="0px" y="0px"
	 viewBox="0 0 988 788" style="enable-background:new 0 0 988 788;" xml:space="preserve">
<style type="text/css">
	.st0{fill:none;}
	.st1{opacity:0.8;}
	.st2{fill:none;stroke:#000000;stroke-width:0.5843;stroke-miterlimit:2.3371;}
	.st3{fill:#333333;}
	.st4{font-family:'TrebuchetMS';}
	.st5{font-size:5.8427px;}
	.st6{opacity:0.2;fill:#333333;enable-background:new    ;}
	.st7{opacity:0.2;fill:#FFF400;enable-background:new    ;}
	.st8{opacity:0.2;fill:#FFFFFF;enable-background:new    ;}
	.st9{fill:#8A90DD;stroke:#534FBC;stroke-width:1.1685;stroke-miterlimit:2.3371;}
	.st10{fill:#BFC7FF;stroke:#534FBC;stroke-width:1.1685;stroke-miterlimit:2.3371;}
	.st11{fill:#BFC7FF;stroke:#FF8888;stroke-width:1.1685;stroke-miterlimit:2.3371;}
	.st12{fill:#FF0000;stroke:#FF8888;stroke-width:1.1685;stroke-miterlimit:2.3371;}
	.st13{fill:#FFFFFF;}
	.st14{font-size:6.427px;}
	.st15{font-family:'TrebuchetMS-Italic';}
	.st16{fill:none;stroke:#FF0000;stroke-width:1.1685;stroke-miterlimit:2.3371;}
	.st17{font-family:'SegoePrint';}
	.st18{font-size:24px;}
</style>
<g transform="translate(75, 410)">
	<path class="st0" d="M-31.2-129.9V89.2h900.4v-219.1"/>
	<g transform="translate(187,0)" class="st1">
		<line class="st2" x1="-108.9" y1="89.2" x2="-108.9" y2="-129.9"/>
		<text transform="matrix(1 0 0 1 -123.3228 96.7637)" class="st3 st4 st5">2023-03-01</text>
	</g>
	<g transform="translate(428,0)" class="st1">
		<line class="st2" x1="-209.1" y1="89.2" x2="-209.1" y2="-129.9"/>
		<text transform="matrix(1 0 0 1 -223.5137 96.7637)" class="st3 st4 st5">2023-04-01</text>
	</g>
	<g transform="translate(661,0)" class="st1">
		<line class="st2" x1="-306" y1="89.2" x2="-306" y2="-129.9"/>
		<text transform="matrix(1 0 0 1 -320.3789 96.7637)" class="st3 st4 st5">2023-05-01</text>
	</g>
	<g transform="translate(903,0)" class="st1">
		<line class="st2" x1="-406.6" y1="89.2" x2="-406.6" y2="-129.9"/>
		<text transform="matrix(1 0 0 1 -420.9854 96.7637)" class="st3 st4 st5">2023-06-01</text>
	</g>
	<g transform="translate(1136,0)" class="st1">
		<line class="st2" x1="-503.4" y1="89.2" x2="-503.4" y2="-129.9"/>
		<text transform="matrix(1 0 0 1 -517.8506 96.7637)" class="st3 st4 st5">2023-07-01</text>
	</g>
	<g transform="translate(1378,0)" class="st1">
		<line class="st2" x1="-604.1" y1="89.2" x2="-604.1" y2="-129.9"/>
		<text transform="matrix(1 0 0 1 -618.4575 96.7637)" class="st3 st4 st5">2023-08-01</text>
	</g>
</g>
<g>
	<rect x="0" y="287.7" class="st6" width="966.1" height="14"/>
	<rect x="0" y="301.7" class="st6" width="966.1" height="14"/>
	<rect x="0" y="413.9" class="st7" width="966.1" height="14"/>
	<rect x="0" y="315.7" class="st6" width="966.1" height="14"/>
	<rect x="0" y="329.7" class="st8" width="966.1" height="14"/>
	<rect x="0" y="427.9" class="st7" width="966.1" height="14"/>
	<rect x="0" y="343.8" class="st8" width="966.1" height="14"/>
	<rect x="0" y="441.9" class="st7" width="966.1" height="14"/>
	<rect x="0" y="455.9" class="st7" width="966.1" height="14"/>
	<rect x="0" y="357.8" class="st8" width="966.1" height="14"/>
	<rect x="0" y="484" class="st7" width="966.1" height="14"/>
	<rect x="0" y="470" class="st7" width="966.1" height="14"/>
	<rect x="0" y="371.8" class="st8" width="966.1" height="14"/>
	<rect x="0" y="385.8" class="st8" width="966.1" height="14"/>
	<rect x="0" y="399.8" class="st8" width="966.1" height="14"/>
</g>
<g>
	<path id="a1" class="st9" d="M45.6,288.8h64.9c1,0,1.8,0.8,1.8,1.8v8.2c0,1-0.8,1.8-1.8,1.8H45.6c-1,0-1.8-0.8-1.8-1.8v-8.2
		C43.8,289.6,44.6,288.8,45.6,288.8z"/>
	<path id="a2" class="st9" d="M113.9,302.9h132.6c1,0,1.8,0.8,1.8,1.8v8.2c0,1-0.8,1.8-1.8,1.8H113.9c-1,0-1.8-0.8-1.8-1.8v-8.2
		C112.2,303.6,113,302.9,113.9,302.9z"/>
	<path id="c1" class="st9" d="M113.9,415h178.2c1,0,1.8,0.8,1.8,1.8v8.2c0,1-0.8,1.8-1.8,1.8H113.9c-1,0-1.8-0.8-1.8-1.8v-8.2
		C112.2,415.8,113,415,113.9,415z"/>
	<path id="a3" class="st10" d="M250.1,316.9h269.3c1,0,1.8,0.8,1.8,1.8v8.2c0,1-0.8,1.8-1.8,1.8H250.1c-1,0-1.8-0.8-1.8-1.8v-8.2
		C248.3,317.7,249.1,316.9,250.1,316.9z"/>
	<path id="b1" class="st11" d="M295.6,330.9h64.9c1,0,1.8,0.8,1.8,1.8v8.2c0,1-0.8,1.8-1.8,1.8h-64.9c-1,0-1.8-0.8-1.8-1.8v-8.2
		C293.9,331.7,294.7,330.9,295.6,330.9z"/>
	<path id="c2" class="st10" d="M295.6,429.1h132.6c1,0,1.8,0.8,1.8,1.8v8.2c0,1-0.8,1.8-1.8,1.8H295.6c-1,0-1.8-0.8-1.8-1.8v-8.2
		C293.9,429.8,294.7,429.1,295.6,429.1z"/>
	<path id="m1" class="st9" d="M355.8,344.9h8.2c1,0,1.8,0.8,1.8,1.8v8.2c0,1-0.8,1.8-1.8,1.8h-8.2c-1,0-1.8-0.8-1.8-1.8v-8.2
		C354.1,345.7,354.9,344.9,355.8,344.9z"/>
	<path id="c3" class="st12" d="M359.3,443.1h360.5c1,0,1.8,0.8,1.8,1.8v8.2c0,1-0.8,1.8-1.8,1.8H359.3c-1,0-1.8-0.8-1.8-1.8v-8.2
		C357.6,443.9,358.4,443.1,359.3,443.1z"/>
	<path id="c4" class="st12" d="M431.8,457.1h360.5c1,0,1.8,0.8,1.8,1.8v8.2c0,1-0.8,1.8-1.8,1.8H431.8c-1,0-1.8-0.8-1.8-1.8v-8.2
		C430,457.9,430.8,457.1,431.8,457.1z"/>
	<path id="b2" class="st9" d="M709.3,358.9h133.2c1,0,1.8,0.8,1.8,1.8v8.2c0,1-0.8,1.8-1.8,1.8H709.3c-1,0-1.8-0.8-1.8-1.8v-8.2
		C707.6,359.7,708.3,358.9,709.3,358.9z"/>
	<path id="c5" class="st9" d="M709.3,485.1h133.2c1,0,1.8,0.8,1.8,1.8v8.2c0,1-0.8,1.8-1.8,1.8H709.3c-1,0-1.8-0.8-1.8-1.8v-8.2
		C707.6,485.9,708.3,485.1,709.3,485.1z"/>
	<path id="m3" class="st9" d="M792.3,471.1h8.2c1,0,1.8,0.8,1.8,1.8v8.2c0,1-0.8,1.8-1.8,1.8h-8.2c-1,0-1.8-0.8-1.8-1.8v-8.2
		C790.5,471.9,791.3,471.1,792.3,471.1z"/>
	<path id="b3" class="st12" d="M846,373h64.9c1,0,1.8,0.8,1.8,1.8v8.2c0,1-0.8,1.8-1.8,1.8H846c-1,0-1.8-0.8-1.8-1.8v-8.2
		C844.3,373.8,845.1,373,846,373z"/>
	<path id="m2" class="st9" d="M910.6,387h8.2c1,0,1.8,0.8,1.8,1.8v8.2c0,1-0.8,1.8-1.8,1.8h-8.2c-1,0-1.8-0.8-1.8-1.8v-8.2
		C908.8,387.8,909.6,387,910.6,387z"/>
	<path id="b4" class="st9" d="M914.4,401h28c1,0,1.8,0.8,1.8,1.8v8.2c0,1-0.8,1.8-1.8,1.8h-28c-1,0-1.8-0.8-1.8-1.8v-8.2
		C912.6,401.8,913.4,401,914.4,401z"/>
	<text id="a1-text" transform="matrix(1 0 0 1 52.5259 296.7188)" class="st13 st4 st14">Initial understand</text>
	<text id="a2-text" transform="matrix(1 0 0 1 161.1982 310.7412)" class="st13 st4 st14">Basic reading</text>
	<text id="c1-text" transform="matrix(1 0 0 1 169.2891 422.9209)" class="st13 st4 st14">Tech. learning and plan</text>
	<text id="a3-text" transform="matrix(1 0 0 1 359.3442 324.7637)" class="st4 st14">Longterm reading</text>
	<text id="b1-text" transform="matrix(1 0 0 1 322.6836 338.7861)" class="st4 st14">ERP</text>
	<text id="c2-text" transform="matrix(1 0 0 1 335.8848 436.9434)" class="st4 st14">Design and deploy</text>
	<text id="m1-text" transform="matrix(1 0 0 1 368.6738 352.8086)" class="st15 st14">Initialization done</text>
	<text id="c3-text" transform="matrix(1 0 0 1 509.6504 450.9658)" class="st13 st4 st14">Searching volunteers</text>
	<text id="c4-text" transform="matrix(1 0 0 1 576.0464 464.9883)" class="st13 st4 st14">Iterative exp. and design</text>
	<text id="b2-text" transform="matrix(1 0 0 1 759.6309 366.8311)" class="st13 st4 st14">Paper draft</text>
	<text id="c5-text" transform="matrix(1 0 0 1 745.6719 493.0332)" class="st13 st4 st14">Sup. exp. and anlysis</text>
	<text id="m3-text" transform="matrix(1 0 0 1 805.1235 479.0107)" class="st15 st14">Basic exp. done</text>
	<text id="b3-text" transform="matrix(1 0 0 1 860.7451 380.8535)" class="st13 st4 st14">Paper refine</text>
	<text id="m2-text" transform="matrix(1 0 0 1 923.4385 394.876)" class="st15 st14">Paper submit</text>
	<text id="b4-text" transform="matrix(1 0 0 1 866.9062 408.8984)" class="st4 st14">Slides &amp; Poster</text>
</g>
<g>
	<text transform="matrix(1 0 0 1 5.8428 309.8652)" class="st3 st4 st14">Paper reading</text>
	<text transform="matrix(1 0 0 1 5.8428 372.9658)" class="st3 st4 st14">Paper work</text>
	<text transform="matrix(1 0 0 1 5.8428 457.1006)" class="st3 st4 st14">Thesis work</text>
</g>
<g>
	<line class="st16" x1="307.3" y1="274.2" x2="307.3" y2="513.8"/>
</g>
<text transform="matrix(1 0 0 1 333.2021 224.2977)" class="st3 st17 st18">Timeline for graduate thesis</text>
</svg>
